<svg xmlns="http://www.w3.org/2000/svg" xmlns:xlink="http://www.w3.org/1999/xlink" viewBox="0 0 418.281 309.812">
  <defs>
    <style>
      .cls-1, .cls-31, .cls-32, .cls-33 {
        fill: #06d6a0;
      }

      .cls-1, .cls-11, .cls-35 {
        opacity: 0.1;
      }

      .cls-2 {
        fill: url(#linear-gradient);
      }

      .cls-3 {
        fill: url(#linear-gradient-2);
      }

      .cls-4 {
        fill: #f6bac2;
      }

      .cls-5 {
        fill: #b77983;
      }

      .cls-13, .cls-6 {
        opacity: 0.05;
      }

      .cls-7 {
        fill: #d39999;
      }

      .cls-47, .cls-8 {
        fill: none;
      }

      .cls-9 {
        fill: #4b4442;
      }

      .cls-10 {
        fill: #8499f0;
      }

      .cls-11, .cls-30 {
        fill: #fff;
      }

      .cls-12 {
        fill: #7e646b;
      }

      .cls-14 {
        fill: #b7b6cc;
      }

      .cls-15, .cls-19, .cls-23, .cls-27, .cls-32 {
        opacity: 0.5;
      }

      .cls-16 {
        fill: url(#linear-gradient-3);
      }

      .cls-17 {
        fill: #f9fafb;
      }

      .cls-18, .cls-19, .cls-20 {
        fill: #f7b643;
      }

      .cls-20, .cls-24, .cls-28, .cls-33 {
        opacity: 0.3;
      }

      .cls-21 {
        fill: url(#linear-gradient-4);
      }

      .cls-22, .cls-23, .cls-24 {
        fill: #f97878;
      }

      .cls-25 {
        fill: url(#linear-gradient-5);
      }

      .cls-26, .cls-27, .cls-28 {
        fill: #73b53b;
      }

      .cls-29 {
        fill: url(#linear-gradient-6);
      }

      .cls-34 {
        fill: #e6ecf8;
      }

      .cls-36 {
        fill: #a8a8a8;
      }

      .cls-37, .cls-40 {
        opacity: 0.2;
      }

      .cls-38 {
        fill: url(#linear-gradient-7);
      }

      .cls-39 {
        fill: #f6f7f9;
      }

      .cls-41 {
        fill: url(#linear-gradient-8);
      }

      .cls-42 {
        fill: #ae6e79;
      }

      .cls-43 {
        fill: #bebed0;
      }

      .cls-44 {
        fill: #5c5c8e;
      }

      .cls-45 {
        fill: #42383c;
      }

      .cls-46 {
        fill: #e6e8ee;
      }

      .cls-47 {
        stroke: #565987;
        stroke-miterlimit: 10;
      }

      .cls-48 {
        fill: #ffd037;
      }
    </style>
    <linearGradient id="linear-gradient" x1="0.5" y1="1" x2="0.5" gradientUnits="objectBoundingBox">
      <stop offset="0" stop-color="gray" stop-opacity="0.251"/>
      <stop offset="0.54" stop-color="gray" stop-opacity="0.122"/>
      <stop offset="1" stop-color="gray" stop-opacity="0.102"/>
    </linearGradient>
    <linearGradient id="linear-gradient-2" x1="0.5" y1="1" x2="0.5" y2="0" xlink:href="#linear-gradient"/>
    <linearGradient id="linear-gradient-3" x1="-0.211" y1="3.614" x2="-0.211" y2="0.343" xlink:href="#linear-gradient"/>
    <linearGradient id="linear-gradient-4" x1="-0.036" y1="4.542" x2="-0.036" y2="1.284" xlink:href="#linear-gradient"/>
    <linearGradient id="linear-gradient-5" x1="-0.017" y1="4.446" x2="-0.017" y2="1.187" xlink:href="#linear-gradient"/>
    <linearGradient id="linear-gradient-6" x1="-1.04" y1="1.715" x2="-1.04" y2="0.715" xlink:href="#linear-gradient"/>
    <linearGradient id="linear-gradient-7" x1="0.551" y1="0.784" x2="0.551" y2="0.225" xlink:href="#linear-gradient"/>
    <linearGradient id="linear-gradient-8" x1="0.5" y1="1" x2="0.5" y2="0" xlink:href="#linear-gradient"/>
  </defs>
  <g id="undraw_upload_87y9" transform="translate(0 -0.002)">
    <path id="Path_9" data-name="Path 9" class="cls-1" d="M269.483,70.177c-13.723-5.579-28.226-10.249-43.031-9.655a63.98,63.98,0,0,0-52.9,33.173c-8.684,16.286-9.754,35.377-13.494,53.45-4.608,22.27-13.432,43.433-22.861,64.131-5.065,11.1-10.408,22.473-11.239,34.661-1.156,16.917,6.934,33.778,19.616,45.043s29.536,17.19,46.435,18.486c9,.69,18.4.052,26.391-4.135,8.455-4.43,14.617-12.438,23.1-16.8,7.868-4.061,17.068-4.615,25.9-4.087a115.982,115.982,0,0,1,33.815,7.185c12.342,4.637,23.821,11.349,36.138,16.049s26.077,7.325,38.667,3.4c11.815-3.692,21.17-12.627,29.6-21.691a379.586,379.586,0,0,0,37.733-47.738c7.6-11.386,14.676-23.4,18.039-36.673,6.424-25.372-2.418-54-22.038-71.33-16.245-14.355-38.061-20.587-59.412-24.367-19.468-3.448-41.978-3.662-59.9-12.649C302.955,88.043,287.4,77.465,269.483,70.177Z" transform="translate(-91.771 -49.379)"/>
    <path id="Path_10" data-name="Path 10" class="cls-2" d="M793.785,139.106c-5.272.21-5.538,13.823-5.209,14.417s-1.2,6.738-1.2,6.738-2.392,9.315-2.115,11.047a3.226,3.226,0,0,1-1.289,2.865c-2.341.923-5.276,3.9-6.055,4.715l-.2.21a17.033,17.033,0,0,0-2.666,2.06c-.4.583-1.477.118-1.477.118a28.787,28.787,0,0,0-3.463-.177c-.273.081-.7-.421-.945-.738-.115-.151-.188-.266-.188-.266l-.092-2.747a2.237,2.237,0,0,0-.369-.229c.063-.31.14-.631.236-.96a8.225,8.225,0,0,0,3.356-3.013c.089-.14.17-.284.247-.428a1.108,1.108,0,0,0,.7.2,1.384,1.384,0,0,0,.325-.03,2.625,2.625,0,0,0,.945-.476,5.058,5.058,0,0,0,1.757-2.06,3.332,3.332,0,0,0,.166-.491c-.055.092-.114.185-.173.273a2.84,2.84,0,0,0-.2-2.4,7.87,7.87,0,0,1-.923-1.359c-.31-.89.277-1.809.639-2.68a4.508,4.508,0,0,0,.329-2.525,3.227,3.227,0,0,0-1.366-2.13c-1.451-.941-3.419-.425-5.1-.879a13.814,13.814,0,0,1-1.754-.705,13.288,13.288,0,0,0-2.684-.834,2.626,2.626,0,0,0-2.584.513,5.3,5.3,0,0,0-.421.713,2.64,2.64,0,0,1-1.65,1.185,6.189,6.189,0,0,1-1.015.107.983.983,0,0,0,0-.421c-.428-1.4.8-2.444,2.392-3.072s7.661-5.405,8.366-6.539,5.641-4.689,5.641-4.689a15.5,15.5,0,0,0,9.806-9.7c2.422-7.613-11.586,5.317-13,5.7a14.37,14.37,0,0,0-3.43,1.846l-8.983,5.195a32.53,32.53,0,0,0-4.844,3.345,16.266,16.266,0,0,0-3.552,5.073s-.86,1.4-2.115,3.434a9.349,9.349,0,0,1-2.74,2.913l.041-.074c-.1.122-3.19,4.024-3.463,5.73s-1.532,8.658-1.532,8.658-1.108,5.461-1.868,6.535a18.727,18.727,0,0,1-.982,3.555c-.365.421-1.846,4.862-1.595,5.313,0,0-1.41,3.075-1.163,4.238l-2.544,6.092s-1.381,3.013-1.289,4.774c.044.853.081,1.846.107,2.658v.369h0v.369c-.137.229-.487.812-.853,1.517a7.9,7.9,0,0,0-1.048,3.1c.059,1.388.063,4.777-.576,6.022l-.188-.074a2.585,2.585,0,0,0-.369,1.226l.044.022c0,.107-.033.218-.044.336-.155,1.414.07,3.382-.284,3.814-.491.6-.247,13.852-.247,13.852s-.8,8.3.8,13.553l-.122,4.117a38.35,38.35,0,0,0,.122,4.43,43.2,43.2,0,0,1,.247,4.478l.919,6.568s-1.229,10.149-.185,12.656a13.8,13.8,0,0,1,1.108,4.36,6.779,6.779,0,0,0,1.691.654v.369l-.24,6.173v.34s-.03.162-.052.432h0v.151a.179.179,0,0,0,0,.044v.129a.905.905,0,0,0,0,.1.715.715,0,0,1,0,.089v.558h0V300a1.064,1.064,0,0,0,.03.185.179.179,0,0,0,0,.044.943.943,0,0,0,.041.2h0a.786.786,0,0,0,.048.2.048.048,0,0,1,0,.022h0a.359.359,0,0,0,.03.1.176.176,0,0,0,0,.048.6.6,0,0,0,.037.126v.03c.037.1.074.207.118.31a.126.126,0,0,0,0,.033c0,.037.033.078.052.115l.022.052.048.1.03.055.052.092.033.055c0,.03.033.059.052.089a.668.668,0,0,1,.037.059l.055.085.041.055.059.085.044.055.066.081.044.052.078.089.041.044.125.122a.192.192,0,0,0,.041.037,1.024,1.024,0,0,0,.092.085l.059.048.081.066.07.052.081.059.078.052.081.052.085.048.085.052.089.044.092.044.092.044.092.041.1.041.1.037.1.037.111.033.173.052.144.037.115.022.118.026h.126l.122.018H738.4l.2-.018h.122l.336-.037s4.183.624,4.32-1.03a1.318,1.318,0,0,1,.019-.266v-.21a.548.548,0,0,1,0-.078v-2.1c-.026-.82-.066-1.58-.092-2a2.674,2.674,0,0,0-.022-.369s-1.425-2.149-1.193-2.954a21.261,21.261,0,0,0,.181-3.537s-.554-1.311-.927-2.47c-.029-.089-.055-.177-.081-.262a13.659,13.659,0,0,0,.871-1.108,14.03,14.03,0,0,0-1.041-8.418.525.525,0,0,1-.225-.432.179.179,0,0,1,0-.044l.713-8.717-.432-5.073s-.306-3.467.369-4.958l1.348-13.133,1.913-7.639s.613-.3,1.108,1.137,1.713,7.938,1.713,7.938l2.954,10.748s.491,3.821.919,4.36.432,2.924.432,2.924a7.555,7.555,0,0,1,.8,2.747,11.881,11.881,0,0,0,.3,3.88,52.605,52.605,0,0,1,.432,6.276,12.676,12.676,0,0,0,.122,5.435,19.135,19.135,0,0,1,.306,6.21,4.246,4.246,0,0,0,.251.347c-.03.081-.063.162-.092.236-.192.5-.343.849-.343.849a21.774,21.774,0,0,0,.185,3.537c.229.8-1.2,2.954-1.2,2.954s0,.133-.022.369c-.026.425-.066,1.181-.092,2v2.1a.481.481,0,0,0,0,.07v.214a1.364,1.364,0,0,0,.018.266c.14,1.654,4.323,1.03,4.323,1.03l.336.041H759.1l.125-.022.122-.018.118-.026.118-.022.144-.037.174-.052.107-.033.1-.037a.8.8,0,0,0,.1-.037l.1-.041.1-.041.092-.041.092-.048.085-.044.089-.048.081-.052.085-.052.074-.052.081-.059a.5.5,0,0,0,.07-.052.684.684,0,0,0,.081-.063l.063-.052.092-.081.041-.041.126-.122.037-.044.081-.085.041-.055a.728.728,0,0,0,.07-.081l.041-.055.063-.085.037-.055.059-.085a.526.526,0,0,1,.037-.059c0-.03.033-.059.052-.089l.033-.055c0-.033.033-.063.048-.092a.384.384,0,0,0,.03-.055c0-.033.033-.066.048-.1l.026-.052c0-.037.033-.074.052-.114v-.033c.041-.1.081-.207.114-.31v-.03a.4.4,0,0,1,.041-.122.281.281,0,0,1,0-.052.141.141,0,0,1,.03-.1v-.018a.049.049,0,0,0,0-.022.9.9,0,0,1,.052-.2h0a1.269,1.269,0,0,1,.041-.2v-.048a1.411,1.411,0,0,1,.03-.181.146.146,0,0,0,0-.063v-.48h0V299.6a.9.9,0,0,1,0-.1v-.129a.179.179,0,0,1,0-.044v-.148h0c-.022-.27-.048-.432-.048-.432v-.336l-.233-5.974v-.369c.343-.192.694-.41,1.06-.665,0,0-.063-3.4.919-4.774s-.491-4.958-.491-4.958l-.613-12.837.244-5.907a5.875,5.875,0,0,1-.738-2.865,10.422,10.422,0,0,0-.982-3.692s-.613-2.031.126-2.629-.8-13.661-.8-13.661a123.267,123.267,0,0,0-.332-15.211v-.092l.2-.089c-.059-.454-.122-.879-.192-1.274l-.207.063a10.367,10.367,0,0,0-.369-1.477l-.982-4.508s-.022-.236-.048-.58c-.033-.406-.07-.956-.078-1.44a2.442,2.442,0,0,1,.067-.606l-.052-.044a1.341,1.341,0,0,1,.052-.314l-.214-.181s-.03-.2-.052-.513a5.775,5.775,0,0,1,.266-2.559c.491-.986,5.538-4.718,5.538-4.718l2.828-5.66s2.821-3.973,4.966-4.748,8.828-5.221,8.828-5.221a22.021,22.021,0,0,0,2.514-2.954l.078-.118h.044v-.078l6.276-9.4c2.51-2.031,2.6-6.358,2.6-6.358l.653-9.887-.214-5.848.3-3.323S799.054,138.9,793.785,139.106Zm-35.953,25.586a7.912,7.912,0,0,0-1.041,3.921v.358a7.885,7.885,0,0,0,.838,3.536,2.9,2.9,0,0,0-.609,1.083,5.871,5.871,0,0,1-1.27-2.381,2.479,2.479,0,0,0-.982-1.61,6.762,6.762,0,0,1,.059-2.119l.033-.03s.026-.044.078-.118h0c.262-.4,1.145-1.728,2.057-3.245a2.906,2.906,0,0,0,.469.155l.561.14Z" transform="translate(-472.139 -94.701)"/>
    <path id="Path_11" data-name="Path 11" class="cls-3" d="M855.405,216.631c.055-.126.1-.258.144-.391a8.161,8.161,0,0,0-.369.9C855.258,216.971,855.335,216.8,855.405,216.631Z" transform="translate(-551.828 -147.637)"/>
    <path id="Path_12" data-name="Path 12" class="cls-4" d="M805.232,239.169s-1.156,5.509-3.286,6.221,2.584,7.015,2.584,7.015l9.773-.535.177-2.042s-1.846-4.087,1.244-9.06S805.232,239.169,805.232,239.169Z" transform="translate(-517.899 -161.395)"/>
    <path id="Path_13" data-name="Path 13" class="cls-5" d="M753.466,566.771c-.133,1.643-4.176,1.023-4.176,1.023-6.7.93-5.6-5.641-5.6-5.641v-.336l.233-6.129.066-1.709s7.384-3.375,7.2-2.666a4.2,4.2,0,0,0,.3,1.595c.369,1.148.9,2.448.9,2.448a22.071,22.071,0,0,1-.177,3.507c-.221.8,1.156,2.931,1.156,2.931s0,.133.022.369A43.076,43.076,0,0,1,753.466,566.771Z" transform="translate(-481.46 -358.938)"/>
    <path id="Path_14" data-name="Path 14" class="cls-5" d="M798.1,569.813s-4.043.624-4.176-1.023a42,42,0,0,1,.07-4.619,3.3,3.3,0,0,1,.018-.369s1.377-2.134,1.156-2.931a22.121,22.121,0,0,1-.177-3.511s.144-.343.332-.838a10.213,10.213,0,0,0,.868-3.2c-.177-.713,7.2,2.662,7.2,2.662l.074,1.912.225,5.926v.336S804.807,570.748,798.1,569.813Z" transform="translate(-513.166 -360.204)"/>
    <path id="Path_15" data-name="Path 15" class="cls-4" d="M813.325,138.281a15.136,15.136,0,0,1-9.474,9.625s-4.77,3.537-5.449,4.645-6.542,5.863-8.086,6.487-2.721,1.658-2.308,3.046c.369,1.289-3.67,7.595-4.279,8.532h0l-.074.118-1.274,1.333-4.323,2.189-3.522-1.126-.447-4.231,1.868-3.323h0a9.167,9.167,0,0,0,2.647-2.891c1.215-2.016,2.045-3.4,2.045-3.4a16.243,16.243,0,0,1,3.434-5.036,31.064,31.064,0,0,1,4.678-3.323l8.68-5.169a13.994,13.994,0,0,1,3.323-1.846C802.135,143.513,815.666,130.731,813.325,138.281Z" transform="translate(-500.677 -96.959)"/>
    <path id="Path_16" data-name="Path 16" class="cls-6" d="M778.059,222.245l5.774-1.156a.369.369,0,0,0-.1.24h0l-.074.118-1.274,1.333-4.323,2.189-3.522-1.126-.447-4.231,1.868-3.323h0a6.623,6.623,0,0,0-.044,6.313Z" transform="translate(-500.677 -147.669)"/>
    <path id="Path_17" data-name="Path 17" class="cls-6" d="M862.656,269.559a1.063,1.063,0,0,0-.041.118,1.623,1.623,0,0,1-.214.369l-2.33,1.137-3.555.369-1.846-4.471,1.229-4.9.679-.916.188-.207c.07.886.428,5.509.406,6.9-.03,1.54,1.108,1.661,1.108,1.661Z" transform="translate(-551.506 -175.909)"/>
    <path id="Path_18" data-name="Path 18" class="cls-7" d="M791.1,241.494a1.075,1.075,0,0,0-.041.118,21.6,21.6,0,0,1-2.426,2.931s-6.457,4.412-8.529,5.169-4.8,4.707-4.8,4.707l-2.725,5.623s-4.885,3.692-5.357,4.682a5.834,5.834,0,0,0-.255,2.54,2.634,2.634,0,0,0,.044.51l-1.44,1.5-1.148,1.2-1.617,1.684-2.632-.369-8.2-1.3L750.4,269.6l-8.732-4.918s0-.306-.022-.775c0-.207,0-.443-.022-.705-.026-.8-.063-1.791-.1-2.636-.089-1.746,1.244-4.737,1.244-4.737l2.455-6.044c-.236-1.152,1.126-4.205,1.126-4.205-.236-.443,1.185-4.855,1.54-5.268a18.781,18.781,0,0,0,.949-3.526c.738-1.063,1.805-6.483,1.805-6.483s1.215-6.871,1.477-8.588,3.249-5.564,3.345-5.682c-2.13,3.906-.266,6.749-.266,6.749l2.134-.369,5.778-1.126c-.266.177-.089,2.13-.089,2.13a2.463,2.463,0,0,1,.945,1.6,6.133,6.133,0,0,0,1.3,2.455l.03.033a2.891,2.891,0,0,1,1.392-1.986l1.333,1.78.447,2.13s-.122.3-.89.89.325,2.13.325,2.13a10.85,10.85,0,0,1,.476,2.931h0a4.318,4.318,0,0,1,2.514-.857,7.613,7.613,0,0,0,1.51-2.164.893.893,0,0,1,1.274-.591,8.187,8.187,0,0,1,1.451-1.008c.713-.369,1.54.369,1.54.369l.089,2.728s.07.111.185.262c.233.325.65.823.912.738a27.047,27.047,0,0,1,3.345.177s1.037.443,1.421-.118a17.519,17.519,0,0,1,2.584-2.042s.425,5.5.425,7.033,1.108,1.661,1.108,1.661Z" transform="translate(-480.131 -147.505)"/>
    <path id="Path_19" data-name="Path 19" class="cls-8" d="M875.867,284.72h-.078C875.93,284.35,875.867,284.72,875.867,284.72Z" transform="translate(-564.829 -190.73)"/>
    <circle id="Ellipse_2" data-name="Ellipse 2" class="cls-9" cx="0.532" cy="0.532" r="0.532" transform="translate(286.21 89.858)"/>
    <circle id="Ellipse_3" data-name="Ellipse 3" class="cls-9" cx="0.532" cy="0.532" r="0.532" transform="translate(282.33 97.589)"/>
    <circle id="Ellipse_4" data-name="Ellipse 4" class="cls-9" cx="0.532" cy="0.532" r="0.532" transform="translate(274.691 114.14)"/>
    <circle id="Ellipse_5" data-name="Ellipse 5" class="cls-9" cx="0.532" cy="0.532" r="0.532" transform="translate(278.302 105.789)"/>
    <path id="Path_20" data-name="Path 20" class="cls-6" d="M752.081,552.908c-2.776,3.3-5.774,3.245-7.561,2.78l.066-1.709s7.384-3.375,7.2-2.666A3.918,3.918,0,0,0,752.081,552.908Z" transform="translate(-482.024 -358.938)"/>
    <path id="Path_21" data-name="Path 21" class="cls-6" d="M805.932,557.936c-4.715,2.725-7.48-.469-8.122-1.373a10.211,10.211,0,0,0,.868-3.2c-.177-.713,7.2,2.662,7.2,2.662Z" transform="translate(-515.639 -360.23)"/>
    <path id="Path_22" data-name="Path 22" class="cls-10" d="M766.308,421.122c-.945,1.362-.89,4.737-.89,4.737-6.1,4.382-9.3-.949-9.3-.949a19.608,19.608,0,0,0-.3-6.158,12.852,12.852,0,0,1-.118-5.39,51.984,51.984,0,0,0-.417-6.217,11.894,11.894,0,0,1-.3-3.851,7.6,7.6,0,0,0-.768-2.721s0-2.37-.417-2.9-.886-4.327-.886-4.327l-2.839-10.659s-1.185-6.454-1.658-7.875-1.067-1.126-1.067-1.126l-1.706,7.639-1.3,13.029c-.654,1.477-.369,4.918-.369,4.918l.414,5.032-.687,8.647a.183.183,0,0,0,0,.044.528.528,0,0,0,.214.428,14.228,14.228,0,0,1,.993,8.351c-4.5,6.516-9.95,3.138-9.95,3.138a13.821,13.821,0,0,0-1.063-4.32c-1.008-2.488.177-12.553.177-12.553l-.89-6.516a43.634,43.634,0,0,0-.236-4.43,39,39,0,0,1-.118-4.382l.118-4.087c-1.54-5.213-.772-13.443-.772-13.443s-.236-13.147.24-13.742c.343-.428.126-2.378.273-3.784a2.64,2.64,0,0,1,.347-1.215l.059-.059c.772-.949.772-4.737.709-6.221a7.988,7.988,0,0,1,1.015-3.072c.369-.716.705-1.307.831-1.521l.052-.085s3.375.831,12.317,5.1a16.807,16.807,0,0,0,5.088,1.576,11.32,11.32,0,0,0,2.655.041,9.266,9.266,0,0,0,3.818-1.24,6.712,6.712,0,0,0,1.65-1.325,11.037,11.037,0,0,0,0,2.385c.022.343.048.576.048.576l.986,4.394a11.51,11.51,0,0,1,.369,1.591c.07.391.129.816.185,1.266a122.768,122.768,0,0,1,.321,15.089s1.477,12.97.772,13.561-.122,2.607-.122,2.607a10.512,10.512,0,0,1,.949,3.67,5.907,5.907,0,0,0,.713,2.843l-.24,5.863.62,12.719S767.257,419.76,766.308,421.122Z" transform="translate(-474.121 -229.161)"/>
    <path id="Path_23" data-name="Path 23" class="cls-6" d="M806.13,489.348s4.486-2.584,5.464-1.421S806.13,489.348,806.13,489.348Z" transform="translate(-520.887 -318.826)"/>
    <path id="Path_24" data-name="Path 24" class="cls-6" d="M813.185,496.14s-.738.369.89.842S813.185,496.14,813.185,496.14Z" transform="translate(-525.232 -324.197)"/>
    <path id="Path_25" data-name="Path 25" class="cls-6" d="M739.993,476.793c-.151.044,3.733,2.621,7.24.487C747.218,477.28,740.868,476.527,739.993,476.793Z" transform="translate(-479.166 -311.957)"/>
    <path id="Path_26" data-name="Path 26" class="cls-6" d="M752.67,490.24a4.761,4.761,0,0,1-3.242,2.4C747.25,492.95,752.67,490.24,752.67,490.24Z" transform="translate(-484.794 -320.475)"/>
    <path id="Path_27" data-name="Path 27" class="cls-6" d="M797.71,502.52s5.11,8.122,4.131,10.039S797.71,502.52,797.71,502.52Z" transform="translate(-515.576 -328.222)"/>
    <path id="Path_28" data-name="Path 28" class="cls-6" d="M773.462,369.09l-.532,15.9s3.153-.133,3.692-5.372.934-9.507.934-9.507Z" transform="translate(-499.945 -244.054)"/>
    <path id="Path_29" data-name="Path 29" class="cls-10" d="M772.982,368.13l-.532,15.9s3.153-.133,3.692-5.376.941-9.5.941-9.5Z" transform="translate(-499.642 -243.449)"/>
    <path id="Path_30" data-name="Path 30" class="cls-6" d="M742.592,369.221s-2.488,6.672-8.182,3.441a2.625,2.625,0,0,1,.347-1.215c1.558.654,5.169,1.61,6.646-2.717Z" transform="translate(-475.647 -243.827)"/>
    <path id="Path_31" data-name="Path 31" class="cls-6" d="M742.112,367.3s-2.488,6.672-8.182,3.441a2.64,2.64,0,0,1,.347-1.215c1.558.657,5.169,1.61,6.646-2.714Z" transform="translate(-475.344 -242.616)"/>
    <path id="Path_32" data-name="Path 32" class="cls-10" d="M742.112,368.257s-2.488,6.672-8.182,3.441a2.64,2.64,0,0,1,.347-1.215c1.558.657,5.169,1.61,6.646-2.714Z" transform="translate(-475.344 -243.222)"/>
    <path id="Path_33" data-name="Path 33" class="cls-6" d="M800.487,378.429c-6.254,2.976-8.547-4.039-8.547-4.039l1.477.044c.258,4.486,5.2,3.279,6.9,2.728C800.373,377.569,800.432,377.979,800.487,378.429Z" transform="translate(-511.936 -247.398)"/>
    <path id="Path_34" data-name="Path 34" class="cls-6" d="M801.447,376.983c-6.251,2.972-8.547-4.043-8.547-4.043l1.477.044c.258,4.486,5.2,3.282,6.9,2.732C801.333,376.108,801.392,376.532,801.447,376.983Z" transform="translate(-512.542 -246.483)"/>
    <path id="Path_35" data-name="Path 35" class="cls-10" d="M800.967,377.463c-6.251,2.972-8.547-4.043-8.547-4.043l1.477.044c.258,4.49,5.2,3.282,6.9,2.732C800.853,376.588,800.912,377.012,800.967,377.463Z" transform="translate(-512.239 -246.786)"/>
    <path id="Path_36" data-name="Path 36" class="cls-11" d="M742.112,368.257s-2.488,6.672-8.182,3.441a2.64,2.64,0,0,1,.347-1.215c1.558.657,5.169,1.61,6.646-2.714Z" transform="translate(-475.344 -243.222)"/>
    <path id="Path_37" data-name="Path 37" class="cls-11" d="M800.967,377.463c-6.251,2.972-8.547-4.043-8.547-4.043l1.477.044c.258,4.49,5.2,3.282,6.9,2.732C800.853,376.588,800.912,377.012,800.967,377.463Z" transform="translate(-512.239 -246.786)"/>
    <path id="Path_38" data-name="Path 38" class="cls-6" d="M753.513,583.443a10.478,10.478,0,0,1-.044,1.229c-.133,1.643-4.176,1.023-4.176,1.023-3.692.513-5.021-1.259-5.461-2.954a6.762,6.762,0,0,1-.2-1.684,6.976,6.976,0,0,1,.066-1.012v-.336a2.47,2.47,0,0,1,2.3.469,3.9,3.9,0,0,0,3.821.31,5.127,5.127,0,0,1,2.215.665c.347.3.919-.421,1.355-1.108.026.443.066,1.244.092,2.1C753.506,582.586,753.513,583.029,753.513,583.443Z" transform="translate(-481.462 -376.847)"/>
    <path id="Path_39" data-name="Path 39" class="cls-6" d="M747.03,585.854s-1.108,1.085-3.2-.591a6.759,6.759,0,0,1-.2-1.684A19.319,19.319,0,0,0,747.03,585.854Z" transform="translate(-481.463 -379.354)"/>
    <path id="Path_40" data-name="Path 40" class="cls-6" d="M768.35,587.78a.834.834,0,0,1-1.2-.192,7.893,7.893,0,0,0,1.182-1.108C768.343,586.923,768.35,587.366,768.35,587.78Z" transform="translate(-496.299 -381.183)"/>
    <path id="Path_41" data-name="Path 41" class="cls-6" d="M793.868,585.507a11.347,11.347,0,0,0,.041,1.229c.133,1.647,4.176,1.023,4.176,1.023,3.692.517,5.021-1.255,5.461-2.954a7.091,7.091,0,0,0,.137-2.7v-.336a2.5,2.5,0,0,0-2.3.469,3.892,3.892,0,0,1-3.818.31,5.148,5.148,0,0,0-2.215.668c-.347.3-.919-.421-1.351-1.108-.026.443-.07,1.244-.1,2.1C793.872,584.647,793.865,585.09,793.868,585.507Z" transform="translate(-513.152 -378.15)"/>
    <path id="Path_42" data-name="Path 42" class="cls-6" d="M811.43,587.9s1.108,1.085,3.194-.591a6.735,6.735,0,0,0,.207-1.68A19.739,19.739,0,0,1,811.43,587.9Z" transform="translate(-524.231 -380.647)"/>
    <path id="Path_43" data-name="Path 43" class="cls-6" d="M793.868,589.84a.831.831,0,0,0,1.2-.192,7.8,7.8,0,0,1-1.181-1.108C793.872,588.979,793.865,589.422,793.868,589.84Z" transform="translate(-513.152 -382.483)"/>
    <path id="Path_44" data-name="Path 44" class="cls-6" d="M773.839,285s-5.686,15.695-3.5,17.057S773.839,285,773.839,285Z" transform="translate(-497.997 -191.011)"/>
    <path id="Path_45" data-name="Path 45" class="cls-6" d="M790.729,271.88s-1.071,5.213-.535,5.686S790.729,271.88,790.729,271.88Z" transform="translate(-510.74 -182.735)"/>
    <path id="Path_46" data-name="Path 46" class="cls-6" d="M811.827,304.77s-6.989,6.513-6.516,7.048S811.827,304.77,811.827,304.77Z" transform="translate(-520.356 -203.481)"/>
    <path id="Path_47" data-name="Path 47" class="cls-6" d="M822.255,260.048c-2.647.809-8.835,2.7-8.905,2.684l.343-1.41a4.318,4.318,0,0,1,2.514-.857,7.612,7.612,0,0,0,1.51-2.164.894.894,0,0,1,1.274-.591,8.4,8.4,0,0,1,1.451-1.008c.713-.369,1.54.369,1.54.369l.089,2.725S822.141,259.9,822.255,260.048Z" transform="translate(-525.442 -173.096)"/>
    <path id="Path_48" data-name="Path 48" class="cls-7" d="M822.255,259.108c-2.647.809-8.835,2.7-8.905,2.68l.343-1.407a4.317,4.317,0,0,1,2.514-.857,7.612,7.612,0,0,0,1.51-2.164.894.894,0,0,1,1.274-.591,8.183,8.183,0,0,1,1.451-1.008c.713-.369,1.54.369,1.54.369l.089,2.728S822.141,258.95,822.255,259.108Z" transform="translate(-525.442 -172.503)"/>
    <path id="Path_49" data-name="Path 49" class="cls-6" d="M808,249.147a10.813,10.813,0,0,1,.473,2.931l-1.03.82-1.957-5.641-.089-2.931-.037-.166.03.033a2.876,2.876,0,0,1,1.392-1.983l1.333,1.776.447,2.13s-.122.3-.89.89S808,249.147,808,249.147Z" transform="translate(-520.402 -164.019)"/>
    <path id="Path_50" data-name="Path 50" class="cls-7" d="M808.49,248.65a10.851,10.851,0,0,1,.476,2.931l-1.03.831-1.957-5.641-.089-2.931-.041-.166.03.033a2.891,2.891,0,0,1,1.392-1.986l1.333,1.78.447,2.13s-.122.3-.89.89S808.49,248.65,808.49,248.65Z" transform="translate(-520.711 -163.71)"/>
    <path id="Path_51" data-name="Path 51" class="cls-6" d="M821.047,220.686a7.927,7.927,0,1,1-2.32-5.675,7.993,7.993,0,0,1,2.32,5.675Z" transform="translate(-520.213 -145.397)"/>
    <path id="Path_52" data-name="Path 52" class="cls-4" d="M821.034,219.723a7.949,7.949,0,1,1-2.329-5.666A8,8,0,0,1,821.034,219.723Z" transform="translate(-520.2 -144.792)"/>
    <path id="Path_53" data-name="Path 53" class="cls-6" d="M822.762,219.706a7.949,7.949,0,0,1-1.163,4.154c-.118-.21-.188-.454-.306-.668-.166-.3-.55-.55-.834-.369a.853.853,0,0,0-.262.369c-.232.491-.646.982-1.189.971A1.178,1.178,0,0,1,818,223.3a3.546,3.546,0,0,1-.059-1.41,3.215,3.215,0,0,0-.617-2.714,4.039,4.039,0,0,0-1.543-.69,2.024,2.024,0,0,1-1.329-.982c-.148-.369-.111-.761-.244-1.108a1.938,1.938,0,0,0-1.436-1.056,3.765,3.765,0,0,1-2.514.86,9.423,9.423,0,0,1-2.474-.391,8,8,0,0,1,14.982,3.888Z" transform="translate(-521.928 -144.775)"/>
    <path id="Path_54" data-name="Path 54" class="cls-12" d="M811.993,209.269c.133.369.1.768.244,1.108a2.015,2.015,0,0,0,1.329.982,4.062,4.062,0,0,1,1.543.687,3.226,3.226,0,0,1,.617,2.717,3.55,3.55,0,0,0,.059,1.41,1.185,1.185,0,0,0,1.012.864,1.469,1.469,0,0,0,1.189-.971.86.86,0,0,1,.262-.369c.284-.188.668.063.834.369a3.659,3.659,0,0,0,.476.9,1.063,1.063,0,0,0,.971.222,2.448,2.448,0,0,0,.912-.473,5,5,0,0,0,1.7-2.042,2.931,2.931,0,0,0-.107-2.584,7.759,7.759,0,0,1-.89-1.351c-.3-.882.266-1.791.617-2.655a4.609,4.609,0,0,0,.314-2.507,3.22,3.22,0,0,0-1.318-2.116c-1.4-.934-3.3-.421-4.925-.871a12.489,12.489,0,0,1-1.695-.7,12.555,12.555,0,0,0-2.584-.827,2.517,2.517,0,0,0-2.507.506,5.6,5.6,0,0,0-.406.709,2.551,2.551,0,0,1-1.595,1.174c-.476.114-.975.085-1.477.155a1.625,1.625,0,0,0-1.229.705,2.446,2.446,0,0,0-.081,1.477,1.5,1.5,0,0,1-.369,1.392c-.188.144-.447.214-.561.417a.587.587,0,0,0,.173.7,1.665,1.665,0,0,0,.705.31,10.793,10.793,0,0,0,2.832.484,3.736,3.736,0,0,0,2.636-.971c-.063.063-.469.037-.543.033A2.157,2.157,0,0,1,811.993,209.269Z" transform="translate(-519.717 -137.996)"/>
    <g id="Group_10" data-name="Group 10" class="cls-13" transform="translate(284.665 66.041)">
      <path id="Path_55" data-name="Path 55" d="M822.078,226.572a2.514,2.514,0,0,1-.912.476,1.071,1.071,0,0,1-.967-.225,3.6,3.6,0,0,1-.48-.9c-.166-.3-.55-.55-.834-.369a.905.905,0,0,0-.262.369,1.446,1.446,0,0,1-1.189.971,1.17,1.17,0,0,1-1.008-.864,3.549,3.549,0,0,1-.063-1.41,3.216,3.216,0,0,0-.613-2.714,4.061,4.061,0,0,0-1.547-.69,2.033,2.033,0,0,1-1.329-.982c-.148-.369-.111-.761-.244-1.108a1.93,1.93,0,0,0-1.436-1.056,3.832,3.832,0,0,1-2.514.864,10.949,10.949,0,0,1-2.832-.487,1.709,1.709,0,0,1-.705-.306.779.779,0,0,1-.115-.133,1.034,1.034,0,0,0-.413.321.587.587,0,0,0,.174.7,1.664,1.664,0,0,0,.705.31,10.792,10.792,0,0,0,2.832.484,3.8,3.8,0,0,0,2.511-.86,1.932,1.932,0,0,1,1.44,1.052c.133.369.1.768.244,1.108a2.024,2.024,0,0,0,1.329.982,4.061,4.061,0,0,1,1.543.687,3.226,3.226,0,0,1,.616,2.717,3.548,3.548,0,0,0,.059,1.41,1.185,1.185,0,0,0,1.012.864,1.469,1.469,0,0,0,1.189-.971.86.86,0,0,1,.262-.369c.284-.188.668.063.834.369a3.549,3.549,0,0,0,.48.9,1.056,1.056,0,0,0,.967.222,2.448,2.448,0,0,0,.912-.473,5,5,0,0,0,1.7-2.042,3.269,3.269,0,0,0,.159-.487A5.265,5.265,0,0,1,822.078,226.572Z" transform="translate(-804.565 -214.794)"/>
      <path id="Path_56" data-name="Path 56" d="M854,220.047c.078-.17.151-.34.221-.506a3.355,3.355,0,0,0,.137-.391A8.713,8.713,0,0,0,854,220.047Z" transform="translate(-835.748 -215.513)"/>
      <path id="Path_57" data-name="Path 57" d="M807.084,211.512a1.514,1.514,0,0,0,.336-1.359,6.038,6.038,0,0,1-.07-.853,1.254,1.254,0,0,0-.2.258,2.446,2.446,0,0,0-.081,1.477A2.868,2.868,0,0,1,807.084,211.512Z" transform="translate(-806.096 -209.3)"/>
    </g>
    <path id="Path_58" data-name="Path 58" class="cls-6" d="M766.015,351.948c-.687.048-1.65.1-2.81.14-.8.026-1.706.044-2.669.044-.842,0-1.732,0-2.655-.041a56.918,56.918,0,0,1-8.7-.9c-3.836-.738-7.384-2.012-9.6-4.168.369-.716.705-1.311.831-1.521,0-.207,0-.447-.022-.705,3.9,1.846,16.038,6.974,25.346,4.061a2.63,2.63,0,0,0,.044.51l.21.177A11.209,11.209,0,0,0,766.015,351.948Z" transform="translate(-478.908 -228.732)"/>
    <path id="Path_59" data-name="Path 59" class="cls-9" d="M766.015,350.981c-.687.048-1.65.1-2.81.137-.8.03-1.706.044-2.669.044-.842,0-1.732,0-2.655-.041a56.9,56.9,0,0,1-8.7-.893c-3.836-.738-7.384-2.016-9.6-4.172.369-.716.705-1.307.831-1.521,0-.207,0-.443-.022-.705,3.9,1.846,16.038,6.978,25.346,4.08a2.63,2.63,0,0,0,.044.51l.21.177A11.07,11.07,0,0,0,766.015,350.981Z" transform="translate(-478.908 -228.12)"/>
    <path id="Path_60" data-name="Path 60" class="cls-14" d="M310.068,520.449a5.077,5.077,0,0,1-1.133-3.866l16.3-133.345,1.351-11.076a5.113,5.113,0,0,1,5.036-4.49l47.734-.318a5.106,5.106,0,0,0,5.073-5.246l-.018-.506a5.11,5.11,0,0,1,5.106-5.283h50.16a5.106,5.106,0,0,1,5.106,5.1,5.455,5.455,0,0,1-.044.687,5.106,5.106,0,0,0,4.933,5.782l48.174,1.229a5.1,5.1,0,0,1,4.9,5.966L478.661,515.746l-.454,2.658a5,5,0,0,1-.738,1.905Z" transform="translate(-207.234 -235.999)"/>
    <g id="Group_11" data-name="Group 11" class="cls-15" transform="translate(192.641 90.991)">
      <rect id="Rectangle_42" data-name="Rectangle 42" class="cls-16" width="97.038" height="29.669" transform="matrix(0.568, -0.823, 0.823, 0.568, 0, 79.837)"/>
    </g>
    <rect id="Rectangle_43" data-name="Rectangle 43" class="cls-17" width="28.207" height="95.738" transform="matrix(0.823, 0.568, -0.568, 0.823, 248.21, 92.071)"/>
    <rect id="Rectangle_44" data-name="Rectangle 44" class="cls-18" width="19.914" height="19.914" transform="matrix(0.821, 0.571, -0.571, 0.821, 249.882, 95.803)"/>
    <rect id="Rectangle_45" data-name="Rectangle 45" class="cls-19" width="19.941" height="19.941" transform="matrix(0.823, 0.568, -0.568, 0.823, 237.073, 115.508)"/>
    <rect id="Rectangle_46" data-name="Rectangle 46" class="cls-20" width="19.941" height="19.941" transform="matrix(0.823, 0.568, -0.568, 0.823, 223.385, 135.315)"/>
    <g id="Group_12" data-name="Group 12" class="cls-15" transform="translate(187.55 86.239)">
      <rect id="Rectangle_47" data-name="Rectangle 47" class="cls-21" width="96.676" height="29.669" transform="matrix(0.28, -0.96, 0.96, 0.28, 0, 92.794)"/>
    </g>
    <rect id="Rectangle_48" data-name="Rectangle 48" class="cls-17" width="28.207" height="95.376" transform="matrix(0.96, 0.28, -0.28, 0.96, 215.421, 87.137)"/>
    <rect id="Rectangle_49" data-name="Rectangle 49" class="cls-22" width="19.941" height="19.941" transform="matrix(0.96, 0.28, -0.28, 0.96, 218.975, 89.78)"/>
    <rect id="Rectangle_50" data-name="Rectangle 50" class="cls-23" width="19.941" height="19.941" transform="matrix(0.96, 0.28, -0.28, 0.96, 212.222, 112.887)"/>
    <rect id="Rectangle_51" data-name="Rectangle 51" class="cls-24" width="19.941" height="19.941" transform="matrix(0.96, 0.28, -0.28, 0.96, 205.469, 135.99)"/>
    <g id="Group_13" data-name="Group 13" class="cls-15" transform="translate(187.602 87.851)">
      <rect id="Rectangle_52" data-name="Rectangle 52" class="cls-25" width="96.676" height="29.669" transform="matrix(0.08, -0.997, 0.997, 0.08, 0, 96.365)"/>
    </g>
    <rect id="Rectangle_53" data-name="Rectangle 53" class="cls-17" width="28.207" height="95.376" transform="matrix(0.997, 0.08, -0.08, 0.997, 196.243, 88.581)"/>
    <rect id="Rectangle_54" data-name="Rectangle 54" class="cls-26" width="19.941" height="19.941" transform="matrix(0.997, 0.08, -0.08, 0.997, 200.245, 90.451)"/>
    <rect id="Rectangle_55" data-name="Rectangle 55" class="cls-27" width="19.941" height="19.941" transform="matrix(0.997, 0.08, -0.08, 0.997, 198.312, 114.442)"/>
    <rect id="Rectangle_56" data-name="Rectangle 56" class="cls-28" width="19.941" height="19.941" transform="matrix(0.997, 0.08, -0.08, 0.997, 196.383, 138.441)"/>
    <g id="Group_14" data-name="Group 14" class="cls-15" transform="translate(182.591 90.447)">
      <rect id="Rectangle_57" data-name="Rectangle 57" class="cls-29" width="29.669" height="96.676" transform="translate(0 1.351) rotate(-2.61)"/>
    </g>
    <rect id="Rectangle_58" data-name="Rectangle 58" class="cls-30" width="28.207" height="95.376" transform="translate(183.594 92.403) rotate(-2.61)"/>
    <rect id="Rectangle_59" data-name="Rectangle 59" class="cls-31" width="19.941" height="19.941" transform="translate(187.795 93.75) rotate(-2.61)"/>
    <rect id="Rectangle_60" data-name="Rectangle 60" class="cls-32" width="19.966" height="19.966" transform="translate(189.672 117.036) rotate(-2.862)"/>
    <rect id="Rectangle_61" data-name="Rectangle 61" class="cls-33" width="19.941" height="19.941" transform="translate(189.986 141.847) rotate(-2.61)"/>
    <path id="Path_61" data-name="Path 61" class="cls-34" d="M340.7,437.49l-25.061,9.7L279.01,461.344c-1.385-2.584-3.423-6.077-5.944-10.245-8.676-14.377-23.031-36.739-35.813-56.392-14.4-22.152-26.793-40.845-26.793-40.845l8.972-2.584L292.718,330Z" transform="translate(-145.141 -219.396)"/>
    <path id="Path_62" data-name="Path 62" class="cls-35" d="M356.035,437.49l-25.061,9.7a188.373,188.373,0,0,1-42.584,3.914c-8.676-14.377-23.031-36.739-35.813-56.392L234.77,351.262,308.053,330Z" transform="translate(-160.475 -219.396)"/>
    <path id="Path_63" data-name="Path 63" class="cls-31" d="M368.718,413.177S329.786,436.207,271.659,431L225.32,318.022l22.208-3.818L324.3,301.02l43.566,109.96Z" transform="translate(-154.514 -201.116)"/>
    <path id="Path_64" data-name="Path 64" class="cls-35" d="M405.793,411.02a184.029,184.029,0,0,1-30.444-.868c-11.549-1.359-23.164-4.157-33.121-9.289a100.371,100.371,0,0,1-21.65-14.543c-16.145-14.521-26.136-35.292-35.108-72.076l76.772-13.184Z" transform="translate(-192.457 -201.141)"/>
    <path id="Path_65" data-name="Path 65" class="cls-17" d="M425.454,348.492s-28.7,5.619-57.909,2.16c-11.549-1.359-23.164-4.157-33.121-9.289a100.465,100.465,0,0,1-21.65-14.543c-19.981-17.977-30.533-45.526-41.413-101.162,0,0,47.708,11.515,94.885-13.709C366.23,211.968,382.132,311.2,425.454,348.492Z" transform="translate(-183.556 -144.931)"/>
    <path id="Path_66" data-name="Path 66" class="cls-35" d="M438.3,528.663c-11.549-1.359-23.164-4.157-33.121-9.289a100.463,100.463,0,0,1-21.65-14.543c17.013-1.381,19.457-10.681,19.457-10.681C415.6,514.164,438.3,528.663,438.3,528.663Z" transform="translate(-254.313 -322.942)"/>
    <path id="Path_67" data-name="Path 67" class="cls-33" d="M338.2,286.366s38.8-2.193,49.628-10.556l1.643,5.28S363.837,292.4,338.2,292.535Z" transform="translate(-225.719 -185.214)"/>
    <path id="Path_68" data-name="Path 68" class="cls-33" d="M338.2,348.065s37.563-2.056,65.943-15.765l.96,2.193s-22.521,13.147-66.9,16.588Z" transform="translate(-225.719 -220.847)"/>
    <path id="Path_69" data-name="Path 69" class="cls-33" d="M346.39,375.575s37.563-2.056,65.94-15.765l.96,2.193s-22.521,13.144-66.9,16.588Z" transform="translate(-230.885 -238.201)"/>
    <path id="Path_70" data-name="Path 70" class="cls-33" d="M354.57,403.125s37.563-2.056,65.943-15.765l.956,2.193s-22.521,13.147-66.9,16.588Z" transform="translate(-236.045 -255.579)"/>
    <path id="Path_71" data-name="Path 71" class="cls-33" d="M362.76,430.675s37.563-2.056,65.94-15.765l.96,2.193s-22.521,13.147-66.9,16.588Z" transform="translate(-241.211 -272.957)"/>
    <path id="Path_72" data-name="Path 72" class="cls-33" d="M370.94,458.235s37.563-2.056,65.943-15.765l.956,2.193s-22.521,13.144-66.9,16.588Z" transform="translate(-246.371 -290.342)"/>
    <path id="Path_73" data-name="Path 73" class="cls-31" d="M1062.524,827.205s-15.61-.942-13.771,10a2.66,2.66,0,0,0,1.388,2.81s.026-.812,1.6-.535a7.17,7.17,0,0,0,1.7.081,3.508,3.508,0,0,0,2.071-.857h0s4.39-1.813,6.1-8.983c0,0,1.263-1.565,1.211-1.968l-2.632,1.108a4.718,4.718,0,0,1,.192,3.478s-.085-3.408-.591-3.323c-.1,0-1.37.657-1.37.657s1.547,3.323.369,5.715c0,0,.443-4.08-.864-5.475l-1.846,1.082s1.809,3.419.583,6.21c0,0,.314-4.279-.975-5.948l-1.68,1.311s1.7,3.371.665,5.686c0,0-.137-4.984-1.03-5.361a9.551,9.551,0,0,0-1.691,1.846s1.163,2.444.439,3.736c0,0-.443-3.323-.8-3.323a10.971,10.971,0,0,0-1.617,3.692,7.985,7.985,0,0,1,1.263-3.917,4.432,4.432,0,0,0-2.245,1.163s.229-1.558,2.607-1.691a10.378,10.378,0,0,1,1.532-1.772,9.643,9.643,0,0,0-3.8.439s1.263-1.477,4.231-.8l1.658-1.351s-3.112-.428-4.43.044c0,0,1.517-1.3,4.877-.369l1.805-1.078a16.441,16.441,0,0,0-4.231-.369s1.665-.9,4.763.074l1.289-.58s-1.942-.369-2.511-.443-.6-.214-.6-.214a6.7,6.7,0,0,1,3.651.406A16.384,16.384,0,0,0,1062.524,827.205Z" transform="translate(-673.838 -533.019)"/>
    <ellipse id="Ellipse_6" data-name="Ellipse 6" class="cls-1" cx="11.047" cy="1.868" rx="11.047" ry="1.868" transform="translate(366.888 306.078)"/>
    <ellipse id="Ellipse_7" data-name="Ellipse 7" class="cls-1" cx="37.659" cy="3.411" rx="37.659" ry="3.411" transform="translate(262.78 297.561)"/>
    <path id="Path_74" data-name="Path 74" class="cls-31" d="M1092.606,729.41s-8.8-.532-7.753,5.638a1.5,1.5,0,0,0,.779,1.584s.018-.458.9-.3a4.108,4.108,0,0,0,.956.044,1.972,1.972,0,0,0,1.167-.48h0s2.474-1.023,3.437-5.065c0,0,.713-.882.683-1.108l-1.477.631a2.676,2.676,0,0,1,.107,1.964s-.048-1.924-.332-1.879c-.059,0-.772.369-.772.369a4.38,4.38,0,0,1,.214,3.223s.251-2.3-.487-3.09l-1.045.613a4.621,4.621,0,0,1,.329,3.5s.177-2.415-.55-3.352l-.945.738s.956,1.9.369,3.2c0,0-.078-2.81-.58-3.02a5.908,5.908,0,0,0-.956,1.03s.657,1.381.251,2.108c0,0-.251-1.872-.454-1.879a6.172,6.172,0,0,0-.912,2.086,4.519,4.519,0,0,1,.713-2.215,2.473,2.473,0,0,0-1.266.657s.129-.879,1.477-.953a5.9,5.9,0,0,1,.864-1,5.44,5.44,0,0,0-2.141.247,2.4,2.4,0,0,1,2.385-.45l.938-.764a7.718,7.718,0,0,0-2.5.026s.857-.738,2.751-.2l1.019-.609a9.2,9.2,0,0,0-2.389-.2,3.647,3.647,0,0,1,2.684.041l.739-.325s-1.108-.218-1.418-.251-.34-.122-.34-.122a3.81,3.81,0,0,1,2.06.229A8.936,8.936,0,0,0,1092.606,729.41Z" transform="translate(-696.651 -471.336)"/>
    <ellipse id="Ellipse_8" data-name="Ellipse 8" class="cls-1" cx="6.228" cy="1.052" rx="6.228" ry="1.052" transform="translate(383.672 264.779)"/>
    <path id="Path_75" data-name="Path 75" class="cls-31" d="M949.134,743.906s-10.626-.642-9.37,6.8a1.813,1.813,0,0,0,.941,1.913s0-.554,1.108-.369a4.853,4.853,0,0,0,1.156.055,2.385,2.385,0,0,0,1.41-.583h0s2.987-1.233,4.15-6.114c0,0,.86-1.063.823-1.34l-1.813.768a3.2,3.2,0,0,1,.129,2.367s-.059-2.319-.4-2.267c-.07,0-.93.45-.93.45s1.052,2.252.258,3.891c0,0,.3-2.776-.587-3.729l-1.263.738s1.229,2.33.4,4.227c0,0,.214-2.913-.661-4.061l-1.145.893s1.159,2.293.45,3.869c0,0-.089-3.393-.7-3.648a6.95,6.95,0,0,0-1.152,1.244s.79,1.665.3,2.544c0,0-.3-2.26-.55-2.271a7.725,7.725,0,0,0-1.108,2.522,5.453,5.453,0,0,1,.86-2.666,2.991,2.991,0,0,0-1.525.794s.155-1.06,1.772-1.152a6.809,6.809,0,0,1,1.045-1.2,6.543,6.543,0,0,0-2.584.3,2.9,2.9,0,0,1,2.876-.543l1.13-.923a9.393,9.393,0,0,0-3.016.029s1.034-.882,3.323-.236l1.229-.738a11.177,11.177,0,0,0-2.883-.247,4.414,4.414,0,0,1,3.242.052l.879-.4s-1.322-.258-1.709-.3-.406-.148-.406-.148a4.564,4.564,0,0,1,2.485.273A11.385,11.385,0,0,0,949.134,743.906Z" transform="translate(-605.118 -480.479)"/>
    <ellipse id="Ellipse_9" data-name="Ellipse 9" class="cls-1" cx="7.521" cy="1.27" rx="7.521" ry="1.27" transform="translate(329.178 271.524)"/>
    <ellipse id="Ellipse_10" data-name="Ellipse 10" class="cls-1" cx="11.047" cy="1.868" rx="11.047" ry="1.868" transform="translate(9.13 300.51)"/>
    <path id="Path_76" data-name="Path 76" class="cls-36" d="M68.1,820.117s6.3-.192,8.2-1.543,9.692-2.954,10.164-.8,9.47,10.788,2.356,10.847-16.529-1.108-18.427-2.263S68.1,820.117,68.1,820.117Z" transform="translate(-55.34 -526.418)"/>
    <path id="Path_77" data-name="Path 77" class="cls-37" d="M88.933,833.653c-7.115.059-16.529-1.108-18.427-2.263-1.44-.879-2.016-4.035-2.215-5.49h-.21s.4,5.084,2.293,6.24,11.338,2.326,18.434,2.289c2.053-.018,2.762-.738,2.725-1.846C91.244,833.232,90.461,833.642,88.933,833.653Z" transform="translate(-55.328 -532.209)"/>
    <rect id="Rectangle_62" data-name="Rectangle 62" class="cls-38" width="63.012" height="112.762" transform="matrix(0.309, -0.951, 0.951, 0.309, 291.562, 59.927)"/>
    <rect id="Rectangle_63" data-name="Rectangle 63" class="cls-39" width="62.144" height="111.204" transform="matrix(0.309, -0.951, 0.951, 0.309, 292.437, 59.757)"/>
    <g id="Group_15" data-name="Group 15" class="cls-40" transform="translate(311.452 21.788)">
      <circle id="Ellipse_11" data-name="Ellipse 11" class="cls-31" cx="11.578" cy="11.578" r="11.578"/>
    </g>
    <g id="Group_16" data-name="Group 16" class="cls-40" transform="translate(350.731 28.267)">
      <rect id="Rectangle_64" data-name="Rectangle 64" class="cls-31" width="3.171" height="50.444" transform="matrix(0.309, -0.951, 0.951, 0.309, 0, 3.016)"/>
    </g>
    <g id="Group_17" data-name="Group 17" class="cls-40" transform="translate(348.231 35.956)">
      <rect id="Rectangle_65" data-name="Rectangle 65" class="cls-31" width="3.171" height="25.697" transform="matrix(0.309, -0.951, 0.951, 0.309, 0, 3.016)"/>
    </g>
    <g id="Group_18" data-name="Group 18" class="cls-40" transform="translate(345.726 43.651)">
      <rect id="Rectangle_66" data-name="Rectangle 66" class="cls-31" width="3.171" height="41.561" transform="matrix(0.309, -0.951, 0.951, 0.309, 0, 3.016)"/>
    </g>
    <g id="Group_19" data-name="Group 19" class="cls-40" transform="translate(343.227 51.342)">
      <rect id="Rectangle_67" data-name="Rectangle 67" class="cls-31" width="3.171" height="50.444" transform="matrix(0.309, -0.951, 0.951, 0.309, 0, 3.016)"/>
    </g>
    <g id="Group_20" data-name="Group 20" class="cls-15" transform="translate(373.399 73.729)">
      <rect id="Rectangle_68" data-name="Rectangle 68" class="cls-31" width="6.132" height="13.96" transform="matrix(0.309, -0.951, 0.951, 0.309, 0, 5.832)"/>
    </g>
    <path id="Path_78" data-name="Path 78" class="cls-41" d="M837.69,459.129a3.342,3.342,0,0,0-.037-.369,1.882,1.882,0,0,0-.063-.369c-.048-.251-.1-.5-.159-.738-.03-.114-.059-.233-.092-.343a9.362,9.362,0,0,0-1.846-3.57c-.048-.059-.1-.114-.148-.17s-.2-.214-.3-.314-.192-.188-.288-.273-.185-.162-.273-.236c-.177-.144-.343-.266-.487-.369a3.029,3.029,0,0,0-.3-.192,1.64,1.64,0,0,0-.694-.225l-1.532-.151h0l-2.093-.207L821.9,448.7l-.3.1a17,17,0,0,1-.554-1.846,1.653,1.653,0,0,0,.591-.432,1.348,1.348,0,0,0,.406-.521c.188-.436-.173-1.362-.1-1.894a8.937,8.937,0,0,1,.923-2.448,11.355,11.355,0,0,0,1.237-5.276,5.951,5.951,0,0,0-2.459-4.681c-.794-.528-1.728-.809-2.555-1.289-.642-.369-1.207-.864-1.82-1.285a10.463,10.463,0,0,0-10.308-.738,50.3,50.3,0,0,0-4.346,2.828,7.335,7.335,0,0,1-4.91,1.351,1.218,1.218,0,0,0-.052.214l-.144-.018c-.3.8.428,1.6,1.108,2.152a7.478,7.478,0,0,0,4.353,2.123,4.573,4.573,0,0,1,1.894.14,1.737,1.737,0,0,1,.369.222,8.226,8.226,0,0,0,2.584,8.2L804,444.228s-.159.081-.406.236l-5.3-3.53s-10.629-3.854-13.583,2.149,12.8,2.906,12.8,2.906l3.371,1.846a3.068,3.068,0,0,0,.369,2.023l9.189,5.678a48.535,48.535,0,0,1-5.449,1.477c-.786,0-2.954.775-4.331,3.873s-6.3,18.209-10.633,20.727-15.75,19.372-15.75,19.372l.052.133c-.2.055-.4.111-.6.177a12.1,12.1,0,0,0-5.933,4.475,1.9,1.9,0,0,0,1.329,2.994c4.508.572,6.971-1.506,8.156-3.075.078-.1.148-.2.214-.3a1.576,1.576,0,0,0,1.108.052l5.512-4.456s-4.312,4.246-1.783,8.122l-.192.27a61.624,61.624,0,0,0-9.23,20.092s-2.363,1.743-2.559,8.717-2.562,18.209-2.562,18.209-1.573,13.369-.591,17.434c0,0,.115.162.325.41-.074.089-.155.185-.244.281-.86.93-2.411,2.215-4.216,1.846-2.754-.583-2.754,4.261,1.182,4.648a104.908,104.908,0,0,1,10.751,2.156,2.263,2.263,0,0,0,2.806-2.415,20.446,20.446,0,0,0-1.181-5.331c-.041-.092-.081-.185-.122-.27.114-.111.233-.221.347-.34,0,0,0-8.525,1.381-10.847,0,0,3.74-17.629,3.541-22.086-.151-3.485,9.706-17.061,14-22.795l-.037-.218c1.108-1.477,1.794-2.363,1.794-2.363l3.319,21.118a30.207,30.207,0,0,0,3.544,7.166s8.466,16.079,9.452,21.115a15.883,15.883,0,0,0,2.983,6.948l-.255.244a4.31,4.31,0,0,1-3.714,1.333c-2.754-.583-2.754,4.261,1.182,4.648a105.74,105.74,0,0,1,10.747,2.16,2.267,2.267,0,0,0,2.81-2.418,17.467,17.467,0,0,0-1.514-6,4.186,4.186,0,0,0-.225-.369,2.073,2.073,0,0,0,.783-.55s-5.121-12.206-5.121-15.506c0,0-2.164-12.59-9.448-17.238,0,0,.687-15.75,2.762-24.515.052-.214.1-.428.155-.635a58.375,58.375,0,0,0,5.745-1.2l.2-5.811.986,4.648,11.024-6.779s-.1-1.222-.281-3.094c-.1-.938-.21-2.038-.347-3.231-.111-.953-.236-1.964-.369-3-.037-.258-.07-.521-.107-.779-.144-1.045-.3-2.1-.473-3.135q-.1-.583-.2-1.152c-.092-.506-.185-1-.281-1.477-.048-.24-.1-.48-.148-.713s-.1-.465-.155-.69-.1-.443-.155-.661c-.03-.107-.055-.214-.081-.318-.055-.21-.111-.417-.166-.617a11.073,11.073,0,0,1-.4-2.54V482.44a7.328,7.328,0,0,1,.1-1.019c.022-.166.052-.336.085-.5a11.268,11.268,0,0,1,.557-1.979c.122-.321.262-.639.413-.953.369-.738.739-1.525,1.13-2.363.2-.417.4-.845.6-1.281s.4-.879.605-1.329c1.916-4.272,3.807-9.031,4.312-12.158.052-.329.092-.639.111-.93A5.935,5.935,0,0,0,837.69,459.129Z" transform="translate(-492.497 -280.817)"/>
    <path id="Path_79" data-name="Path 79" class="cls-42" d="M845.22,472.427l-6.494-4.39s-10.312-3.821-13.177,2.1S837.961,473,837.961,473l6.494,3.626Z" transform="translate(-532.911 -305.705)"/>
    <rect id="Rectangle_69" data-name="Rectangle 69" class="cls-17" width="62.116" height="96.699" transform="matrix(0.541, -0.841, 0.841, 0.541, 241.851, 203.145)"/>
    <rect id="Rectangle_70" data-name="Rectangle 70" class="cls-14" width="17.574" height="4.135" transform="matrix(0.536, -0.844, 0.844, 0.536, 253.905, 199.5)"/>
    <rect id="Rectangle_71" data-name="Rectangle 71" class="cls-14" width="38.596" height="3.792" transform="matrix(0.536, -0.844, 0.844, 0.536, 265.061, 202.505)"/>
    <rect id="Rectangle_72" data-name="Rectangle 72" class="cls-14" width="38.596" height="3.792" transform="matrix(0.536, -0.844, 0.844, 0.536, 271.898, 206.845)"/>
    <rect id="Rectangle_73" data-name="Rectangle 73" class="cls-14" width="38.596" height="3.792" transform="matrix(0.536, -0.844, 0.844, 0.536, 278.732, 211.192)"/>
    <rect id="Rectangle_74" data-name="Rectangle 74" class="cls-14" width="38.542" height="3.786" transform="matrix(0.541, -0.841, 0.841, 0.541, 285.804, 217.49)"/>
    <rect id="Rectangle_75" data-name="Rectangle 75" class="cls-30" width="38.596" height="3.792" transform="matrix(0.536, -0.844, 0.844, 0.536, 292.403, 219.876)"/>
    <rect id="Rectangle_76" data-name="Rectangle 76" class="cls-30" width="38.596" height="3.792" transform="matrix(0.536, -0.844, 0.844, 0.536, 299.24, 224.216)"/>
    <rect id="Rectangle_77" data-name="Rectangle 77" class="cls-14" width="9.994" height="9.994" transform="matrix(0.536, -0.844, 0.844, 0.536, 327.942, 205.71)"/>
    <path id="Path_80" data-name="Path 80" class="cls-43" d="M908.483,827.593a101.411,101.411,0,0,0-10.426-2.127c-3.821-.369-3.821-5.169-1.144-4.585a4.136,4.136,0,0,0,3.6-1.311,8.441,8.441,0,0,0,.738-.808,2.216,2.216,0,0,1,1.237-.757c1.432-.31,4.43-.783,6.243.2a2.7,2.7,0,0,1,.989,1.085A17.728,17.728,0,0,1,911.2,825.2a2.215,2.215,0,0,1-2.714,2.392Z" transform="translate(-576.964 -526.983)"/>
    <path id="Path_81" data-name="Path 81" class="cls-43" d="M777.618,832.79a101.134,101.134,0,0,0-10.423-2.127c-3.821-.369-3.821-5.169-1.148-4.582,1.75.369,3.256-.89,4.087-1.805.1-.111.2-.218.273-.318a2.215,2.215,0,0,1,1.233-.738c1.432-.314,4.43-.786,6.247.2a3.379,3.379,0,0,1,1.311,1.746,20.679,20.679,0,0,1,1.145,5.254,2.215,2.215,0,0,1-2.725,2.367Z" transform="translate(-494.417 -530.271)"/>
    <path id="Path_82" data-name="Path 82" class="cls-35" d="M789.394,825.155c-4.56,4.7-8.47-.089-9.064-.879.1-.111.2-.218.273-.318a2.215,2.215,0,0,1,1.233-.738c1.432-.314,4.43-.786,6.247.2A3.188,3.188,0,0,1,789.394,825.155Z" transform="translate(-504.613 -530.271)"/>
    <path id="Path_83" data-name="Path 83" class="cls-35" d="M919.106,819.293c-1.975,1.348-8.625,1.015-8.625,1.015a6.25,6.25,0,0,1-.6-.738,8.435,8.435,0,0,0,.738-.809,2.216,2.216,0,0,1,1.237-.757c1.432-.31,4.43-.783,6.243.2A2.7,2.7,0,0,1,919.106,819.293Z" transform="translate(-586.333 -526.983)"/>
    <path id="Path_84" data-name="Path 84" class="cls-44" d="M837.074,710.158c-1.34,1.721-8.975,1.337-8.975,1.337s-2.293-2.293-3.249-7.255-9.167-20.816-9.167-20.816a30.028,30.028,0,0,1-3.437-7.067L809,655.542s-15.658,20.624-15.466,25.017-3.441,21.783-3.441,21.783c-1.336,2.293-1.336,10.707-1.336,10.707-4.962,5.169-9.164-.956-9.164-.956-.956-4.01.572-17.186.572-17.186s2.293-11.076,2.481-17.951,2.485-8.591,2.485-8.591a61.243,61.243,0,0,1,8.968-19.811c1.152-1.65,1.916-2.533,1.916-2.533l30.935,3.629a19.481,19.481,0,0,0-1.329,4.1c-2.012,8.639-2.68,24.164-2.68,24.164,7.067,4.582,9.167,16.983,9.167,16.983C832.108,698.126,837.074,710.158,837.074,710.158Z" transform="translate(-503.949 -418.741)"/>
    <g id="Group_21" data-name="Group 21" class="cls-13" transform="translate(279.719 227.272)">
      <path id="Path_85" data-name="Path 85" d="M814.8,674.354l-.4-2.544s-15.658,20.624-15.466,25.017S795.5,718.61,795.5,718.61c-1.34,2.293-1.34,10.707-1.34,10.707a6.528,6.528,0,0,1-2.987,1.916c1.5.4,3.323.1,5.28-1.916,0,0,0-8.4,1.336-10.707,0,0,3.629-17.378,3.437-21.783C801.076,693.39,810.634,680,814.8,674.354Z" transform="translate(-791.17 -662.281)"/>
      <path id="Path_86" data-name="Path 86" d="M860.866,694.868s-2.1-12.413-9.164-16.983c0,0,.668-15.525,2.677-24.164a19.465,19.465,0,0,1,1.333-4.1L824.777,646s-.074.081-.207.244l28.85,3.386a19.475,19.475,0,0,0-1.329,4.1c-2.012,8.639-2.68,24.164-2.68,24.164,7.067,4.582,9.167,16.983,9.167,16.983,0,3.245,4.966,15.278,4.966,15.278-.79,1.012-3.766,1.3-6.081,1.359,1.846.048,7.262.066,8.37-1.359C865.832,710.145,860.866,698.113,860.866,694.868Z" transform="translate(-812.239 -646)"/>
    </g>
    <path id="Path_87" data-name="Path 87" class="cls-42" d="M791.23,633.127a6.98,6.98,0,0,1-.9,1.58c-1.148,1.547-3.537,3.592-7.908,3.031a1.879,1.879,0,0,1-1.292-2.954,11.767,11.767,0,0,1,5.756-4.43,10.506,10.506,0,0,1,2.44-.495Z" transform="translate(-504.895 -408.547)"/>
    <path id="Path_88" data-name="Path 88" class="cls-45" d="M886.915,484.481l-15.315-5.6s-4.393,2.293-2.673,5.538l14.912,9.359Z" transform="translate(-560.248 -313.31)"/>
    <path id="Path_89" data-name="Path 89" class="cls-35" d="M887.069,484.651l-15.318-5.6s-4.394,2.289-2.673,5.538l14.894,9.356Z" transform="translate(-560.342 -313.417)"/>
    <path id="Path_90" data-name="Path 90" class="cls-42" d="M905.741,468.406s-.192,8.975,3.821,12.032-11.652,4.774-11.652,4.774,2.485-9.167,0-13.941S905.741,468.406,905.741,468.406Z" transform="translate(-578.538 -306.465)"/>
    <path id="Path_91" data-name="Path 91" class="cls-35" d="M852.272,649.579a19.484,19.484,0,0,0-1.329,4.1c-18.46,2.821-31.327-4.862-31.327-4.862-.07-.111-.137-.221-.2-.332,1.152-1.65,1.916-2.533,1.916-2.533Z" transform="translate(-529.271 -418.697)"/>
    <path id="Path_92" data-name="Path 92" class="cls-35" d="M801.659,633.159a6.973,6.973,0,0,1-.9,1.58c-1.768-.3-3.182-3.692-3.445-4.334a10.506,10.506,0,0,1,2.44-.495Z" transform="translate(-515.324 -408.579)"/>
    <path id="Path_93" data-name="Path 93" class="cls-45" d="M844.963,490.78l-6.875,2.481-2.865,3.821s-5.907,1.909-6.683,1.909-2.865.764-4.2,3.818-6.11,17.958-10.312,20.435-15.278,19.1-15.278,19.1,1.909,5.169,4.2,4.394l5.346-4.394s-4.2,4.2-1.72,8.023c0,0,15.662,9.356,37.242,3.626l.188-5.726.956,4.582,10.707-6.683s-.956-12.328-2.68-18.6a11.341,11.341,0,0,1,.738-7.9c2.773-5.778,7.052-15.429,6.531-18.948a8.79,8.79,0,0,0-3.854-6.491,1.6,1.6,0,0,0-.672-.225l-3.5-.347Z" transform="translate(-516.232 -320.816)"/>
    <path id="Path_94" data-name="Path 94" class="cls-6" d="M851.323,542.76s-3.821,17.759-8.023,20.624-15.466,12.032-15.85,13.561" transform="translate(-534.336 -353.605)"/>
    <path id="Path_95" data-name="Path 95" class="cls-45" d="M846.669,541.21s-3.818,17.759-8.019,20.624-15.47,12.032-15.85,13.557" transform="translate(-531.403 -352.627)"/>
    <path id="Path_96" data-name="Path 96" class="cls-35" d="M897.28,501.714s13.177-4.394,16.983-3.249" transform="translate(-578.385 -325.544)"/>
    <g id="Group_22" data-name="Group 22" class="cls-13" transform="translate(328.085 169.964)">
      <path id="Path_97" data-name="Path 97" d="M932.288,524.9c2.773-5.778,7.052-15.429,6.531-18.948a8.789,8.789,0,0,0-3.854-6.491,1.6,1.6,0,0,0-.672-.225l-1.477-.148a1.475,1.475,0,0,1,.443.181,8.81,8.81,0,0,1,3.851,6.494c.521,3.515-3.759,13.169-6.528,18.948a11.334,11.334,0,0,0-.738,7.9c1.728,6.276,2.684,18.6,2.684,18.6l-9.208,5.756.233,1.108L934.26,551.4s-.956-12.328-2.68-18.6A11.342,11.342,0,0,1,932.288,524.9Z" transform="translate(-922.895 -496.022)"/>
      <path id="Path_98" data-name="Path 98" d="M894.814,463.023l1.654.166-7.192-2.839-.646.233Z" transform="translate(-888.63 -460.35)"/>
    </g>
    <path id="Path_99" data-name="Path 99" class="cls-6" d="M887.45,586.813s5.907-3.245,7.831-2.481,8.975-.192,8.975-.192" transform="translate(-572.184 -379.707)"/>
    <path id="Path_100" data-name="Path 100" class="cls-6" d="M905.1,472.1c-.218-1.916.668-1.625.668-1.625s-10.312-1.909-7.831,2.865a10.935,10.935,0,0,1,1.049,4.2h.1C901.955,477.543,903.627,474.338,905.1,472.1Z" transform="translate(-578.559 -307.771)"/>
    <circle id="Ellipse_12" data-name="Ellipse 12" class="cls-42" cx="8.211" cy="8.211" r="8.211" transform="translate(312.309 152.586)"/>
    <path id="Path_101" data-name="Path 101" class="cls-35" d="M884.191,448.453a11.447,11.447,0,0,0,1.2-5.2,5.9,5.9,0,0,0-2.385-4.619c-.768-.517-1.676-.794-2.477-1.266-.624-.369-1.174-.853-1.768-1.266a10.009,10.009,0,0,0-10-.738,45.947,45.947,0,0,0-4.213,2.791,7.058,7.058,0,0,1-4.763,1.333c-.288.794.417,1.577,1.063,2.123a7.188,7.188,0,0,0,4.224,2.09,4.42,4.42,0,0,1,1.846.14,2.648,2.648,0,0,1,.938.871,17.2,17.2,0,0,1,1.949,3.3,2.739,2.739,0,0,0,.871,1.285c.738.473,1.695.078,2.584.044a5.319,5.319,0,0,1,3.589,1.717,10.957,10.957,0,0,0,3.234,2.448c.949.369,2.847.347,3.323-.786.181-.428-.17-1.344-.1-1.868A9.036,9.036,0,0,1,884.191,448.453Z" transform="translate(-554.692 -285.227)"/>
    <path id="Path_102" data-name="Path 102" class="cls-45" d="M884.657,447.923a11.4,11.4,0,0,0,1.2-5.2,5.906,5.906,0,0,0-2.381-4.619c-.772-.521-1.68-.8-2.477-1.27-.624-.369-1.174-.849-1.768-1.266a10.009,10.009,0,0,0-10-.738,45.9,45.9,0,0,0-4.213,2.788,7.039,7.039,0,0,1-4.763,1.333c-.288.8.414,1.58,1.063,2.123a7.214,7.214,0,0,0,4.224,2.093,4.359,4.359,0,0,1,1.846.14,2.584,2.584,0,0,1,.938.871,16.982,16.982,0,0,1,1.946,3.3,2.747,2.747,0,0,0,.875,1.285c.738.473,1.695.078,2.584.044a5.323,5.323,0,0,1,3.585,1.72,10.865,10.865,0,0,0,3.238,2.444c.949.369,2.847.347,3.323-.786.185-.428-.166-1.344-.092-1.868A9.029,9.029,0,0,1,884.657,447.923Z" transform="translate(-554.988 -284.893)"/>
    <path id="Path_103" data-name="Path 103" class="cls-35" d="M477.461,563.982a3.807,3.807,0,0,1-2.444.864l-164.949-.7a5.076,5.076,0,0,1-1.133-3.866l16.3-133.345,10.22-.111a3.862,3.862,0,0,1,3.766,2.85l1.909,7.044a3.862,3.862,0,0,0,3.818,2.85l40.786-.978a3.862,3.862,0,0,0,3.77-3.862v-4.667a3.862,3.862,0,0,1,3.818-3.862l56.517-.609a3.862,3.862,0,0,1,3.829,3.135l24.995,130.7.162.842a3.84,3.84,0,0,1-1.359,3.718Z" transform="translate(-207.234 -279.694)"/>
    <path id="Path_104" data-name="Path 104" class="cls-46" d="M390.582,430.6l-56.518.609a3.862,3.862,0,0,0-3.821,3.858v4.67a3.862,3.862,0,0,1-3.766,3.858l-40.782.978a3.858,3.858,0,0,1-3.821-2.85l-1.916-7.041a3.858,3.858,0,0,0-3.77-2.85l-54.476.587a3.858,3.858,0,0,0-3.766,4.5l21.916,128.985a3.862,3.862,0,0,0,3.792,3.216l172.1.738a3.862,3.862,0,0,0,3.807-4.585l-25.15-131.543A3.858,3.858,0,0,0,390.582,430.6Z" transform="translate(-149.829 -282.854)"/>
    <path id="Path_105" data-name="Path 105" class="cls-4" d="M871.869,167.872l-.3,3.286.214,5.811-.624,9.8s-.089,4.294-2.514,6.306l-6.192,9.507-.037.018-2.33,1.137-3.555.369-1.846-4.471,1.222-4.91.679-.916.188-.207c.738-.812,3.589-3.762,5.852-4.681a3.2,3.2,0,0,0,1.244-2.843c-.266-1.735,2.038-10.958,2.038-10.958s1.477-6.1,1.156-6.694-.059-14.1,5.036-14.3S871.869,167.872,871.869,167.872Z" transform="translate(-551.519 -108.454)"/>
    <ellipse id="Ellipse_13" data-name="Ellipse 13" class="cls-1" cx="5.985" cy="0.823" rx="5.985" ry="0.823" transform="translate(49.924 257.945)"/>
    <ellipse id="Ellipse_14" data-name="Ellipse 14" class="cls-1" cx="5.985" cy="0.823" rx="5.985" ry="0.823" transform="translate(27 260.267)"/>
    <ellipse id="Ellipse_15" data-name="Ellipse 15" class="cls-1" cx="5.985" cy="0.823" rx="5.985" ry="0.823" transform="translate(0 257.122)"/>
    <ellipse id="Ellipse_16" data-name="Ellipse 16" class="cls-1" cx="4.253" cy="0.583" rx="4.253" ry="0.583" transform="translate(37.906 267.127)"/>
    <ellipse id="Ellipse_17" data-name="Ellipse 17" class="cls-1" cx="4.253" cy="0.583" rx="4.253" ry="0.583" transform="translate(14.115 266.544)"/>
    <path id="Path_106" data-name="Path 106" class="cls-31" d="M78.991,659.473s8.392-27.513-1.314-38.534c-7.262-8.244-15.507-7.259-19.2-6.24a6.827,6.827,0,0,0-4.4,3.659c-1.292,2.784-1.06,7.3,8.052,12.579,15.252,8.831,16.2,20.945,16.2,20.945Z" transform="translate(-46.136 -398.563)"/>
    <path id="Path_107" data-name="Path 107" class="cls-47" d="M70.54,626.41s24.737,7.753,19.2,40.871" transform="translate(-56.879 -406.371)"/>
    <path id="Path_108" data-name="Path 108" class="cls-47" d="M105.348,633.92s-3.408,2.3-2.322,5.748" transform="translate(-77.237 -411.108)"/>
    <path id="Path_109" data-name="Path 109" class="cls-47" d="M77.26,637.237a4.3,4.3,0,0,1,4.619-.949" transform="translate(-61.118 -412.38)"/>
    <path id="Path_110" data-name="Path 110" class="cls-47" d="M103.75,667.129s3.659-1.846,4.6.469" transform="translate(-77.828 -431.616)"/>
    <path id="Path_111" data-name="Path 111" class="cls-47" d="M123.485,678.767s-2.747-.218-2.795,1.108" transform="translate(-88.514 -439.389)"/>
    <path id="Path_112" data-name="Path 112" class="cls-31" d="M98.109,704.256s-9.832-20-12.531-19.568c-1.281.211-1.872,1.477-2.141,2.74a8.045,8.045,0,0,0,.535,4.866C85.368,695.506,89.115,701.579,98.109,704.256Z" transform="translate(-64.914 -443.129)"/>
    <path id="Path_113" data-name="Path 113" class="cls-47" d="M89.71,695s10.316,14.96,12.309,15.617" transform="translate(-68.972 -449.637)"/>
    <line id="Line_12" data-name="Line 12" class="cls-47" x2="2.407" transform="translate(19.789 247.7)"/>
    <line id="Line_13" data-name="Line 13" class="cls-47" x2="3.777" y2="0.162" transform="translate(22.673 253.171)"/>
    <line id="Line_14" data-name="Line 14" class="cls-47" x1="0.41" y2="1.968" transform="translate(24.563 248.793)"/>
    <line id="Line_15" data-name="Line 15" class="cls-47" x1="0.074" y2="1.787" transform="translate(28.912 254.777)"/>
    <path id="Path_114" data-name="Path 114" class="cls-31" d="M122.66,704.256s9.828-20,12.527-19.568c1.285.211,1.876,1.477,2.141,2.74a8.045,8.045,0,0,1-.535,4.866C135.4,695.506,131.646,701.579,122.66,704.256Z" transform="translate(-89.757 -443.129)"/>
    <path id="Path_115" data-name="Path 115" class="cls-47" d="M135.363,695s-10.338,14.96-12.313,15.617" transform="translate(-90.003 -449.637)"/>
    <line id="Line_16" data-name="Line 16" class="cls-47" x1="2.407" transform="translate(43.902 247.7)"/>
    <line id="Line_17" data-name="Line 17" class="cls-47" x1="3.777" y2="0.162" transform="translate(39.649 253.171)"/>
    <line id="Line_18" data-name="Line 18" class="cls-47" x2="0.41" y2="1.968" transform="translate(41.126 248.793)"/>
    <line id="Line_19" data-name="Line 19" class="cls-47" x2="0.074" y2="1.787" transform="translate(37.112 254.777)"/>
    <path id="Path_116" data-name="Path 116" class="cls-31" d="M75.942,745.709a1.7,1.7,0,0,1-.558-.845.738.738,0,0,1,.391-.86,1.085,1.085,0,0,1,1.034.369,1.32,1.32,0,0,0,1,.469,1.528,1.528,0,0,1-.473-1.432.584.584,0,0,1,.129-.292c.2-.214.561-.122.8.048a3.031,3.031,0,0,1,.975,2.492,4.763,4.763,0,0,0,0-1.026,1.052,1.052,0,0,1,.414-.9,1.153,1.153,0,0,1,.587-.14,1.219,1.219,0,0,1,.956.273.949.949,0,0,1-.037,1.17,3.766,3.766,0,0,1-.989.79,2.216,2.216,0,0,0-.705.676.494.494,0,0,0-.052.118H77.268A5.958,5.958,0,0,1,75.942,745.709Z" transform="translate(-59.919 -479.911)"/>
    <path id="Path_117" data-name="Path 117" class="cls-31" d="M177.392,723.926a1.673,1.673,0,0,1-.557-.842.738.738,0,0,1,.388-.86,1.085,1.085,0,0,1,1.034.369,1.361,1.361,0,0,0,1.008.484,1.529,1.529,0,0,1-.476-1.429.587.587,0,0,1,.133-.292c.2-.214.561-.122.8.044a2.988,2.988,0,0,1,.975,2.5,4.8,4.8,0,0,0,0-1.03,1.056,1.056,0,0,1,.369-.908,1.179,1.179,0,0,1,.587-.137,1.233,1.233,0,0,1,.956.27.949.949,0,0,1-.041,1.174,3.69,3.69,0,0,1-.986.79,2.193,2.193,0,0,0-.705.672.608.608,0,0,0-.052.122h-2.1a5.911,5.911,0,0,1-1.333-.923Z" transform="translate(-123.913 -466.184)"/>
    <path id="Path_118" data-name="Path 118" class="cls-31" d="M143.576,745.74a1.731,1.731,0,0,1-.561-.845.738.738,0,0,1,.391-.86,1.085,1.085,0,0,1,1.034.369,1.373,1.373,0,0,0,1.008.487,1.54,1.54,0,0,1-.476-1.433.587.587,0,0,1,.133-.292c.2-.214.561-.122.8.048a2.987,2.987,0,0,1,.975,2.492,4.767,4.767,0,0,0,0-1.026,1.056,1.056,0,0,1,.388-.908,1.14,1.14,0,0,1,.587-.14,1.222,1.222,0,0,1,.956.273.945.945,0,0,1-.041,1.17,3.745,3.745,0,0,1-.986.79,2.214,2.214,0,0,0-.705.676.492.492,0,0,0-.052.118h-2.141A6.023,6.023,0,0,1,143.576,745.74Z" transform="translate(-102.58 -479.942)"/>
    <path id="Path_119" data-name="Path 119" class="cls-31" d="M45.611,706.25s-.8,1.049.369,2.632,2.138,2.92,1.746,3.906c0,0-1.768-2.954-3.208-2.979S44.027,708,45.611,706.25Z" transform="translate(-40.017 -456.734)"/>
    <path id="Path_120" data-name="Path 120" class="cls-35" d="M45.615,706.25a1.321,1.321,0,0,0-.162.329c-1.4,1.65-2.152,3.19-.8,3.23,1.255.037,2.765,2.282,3.123,2.85a1.319,1.319,0,0,1-.041.129s-1.768-2.954-3.208-2.979S44.032,708,45.615,706.25Z" transform="translate(-40.022 -456.734)"/>
    <path id="Path_121" data-name="Path 121" class="cls-48" d="M44.66,709.466c0,.369.041.668.092.668s.092-.3.092-.668-.052-.2-.1-.2S44.66,709.1,44.66,709.466Z" transform="translate(-40.554 -458.613)"/>
    <path id="Path_122" data-name="Path 122" class="cls-48" d="M42.931,710.638c.325.177.605.281.631.236s-.218-.221-.543-.4-.2-.048-.222,0S42.606,710.461,42.931,710.638Z" transform="translate(-39.339 -459.342)"/>
    <path id="Path_123" data-name="Path 123" class="cls-31" d="M56.394,706.25s.8,1.049-.369,2.632-2.138,2.92-1.746,3.906c0,0,1.768-2.954,3.208-2.979S57.978,708,56.394,706.25Z" transform="translate(-46.566 -456.734)"/>
    <path id="Path_124" data-name="Path 124" class="cls-35" d="M56.47,706.25a1.4,1.4,0,0,1,.166.329c1.4,1.65,2.152,3.19.8,3.231-1.255.037-2.765,2.282-3.127,2.85a.761.761,0,0,0,.044.129s1.768-2.954,3.208-2.979S58.054,708,56.47,706.25Z" transform="translate(-46.642 -456.734)"/>
    <path id="Path_125" data-name="Path 125" class="cls-48" d="M63.885,709.466c0,.369-.041.668-.092.668s-.092-.3-.092-.668.052-.2.1-.2S63.885,709.1,63.885,709.466Z" transform="translate(-52.565 -458.613)"/>
    <path id="Path_126" data-name="Path 126" class="cls-48" d="M64.509,710.638c-.325.177-.609.281-.631.236s.218-.221.543-.4.2-.048.218,0S64.83,710.461,64.509,710.638Z" transform="translate(-52.676 -459.342)"/>
    <path id="Path_127" data-name="Path 127" class="cls-36" d="M49.256,721.521a8.24,8.24,0,0,1-2.917-.55c-.676-.48-3.448-1.056-3.618-.284s-3.367,3.84-.838,3.858,5.881-.4,6.557-.8S49.256,721.521,49.256,721.521Z" transform="translate(-38.191 -465.602)"/>
    <path id="Path_128" data-name="Path 128" class="cls-37" d="M41.842,726.338c2.533.022,5.881-.391,6.557-.8.513-.31.716-1.433.786-1.953h.074s-.14,1.809-.816,2.215-4.024.827-6.557.8c-.738,0-.982-.266-.967-.65C41.019,726.19,41.318,726.32,41.842,726.338Z" transform="translate(-38.194 -467.666)"/>
    <circle id="Ellipse_18" data-name="Ellipse 18" class="cls-1" cx="7.986" cy="7.986" r="7.986" transform="translate(4.545 38.797)"/>
    <circle id="Ellipse_19" data-name="Ellipse 19" class="cls-1" cx="7.986" cy="7.986" r="7.986" transform="translate(388.549 102.614)"/>
    <circle id="Ellipse_20" data-name="Ellipse 20" class="cls-1" cx="7.986" cy="7.986" r="7.986" transform="translate(244.996 13.437)"/>
    <circle id="Ellipse_21" data-name="Ellipse 21" class="cls-1" cx="13.384" cy="13.384" r="13.384" transform="translate(15.119 77.456)"/>
    <path id="Path_129" data-name="Path 129" class="cls-39" d="M462.659,609.637l-.473-.473a.506.506,0,0,1,0-.738l4.146-4.15a.506.506,0,0,1,.738,0l4.146,4.146a.513.513,0,0,1,0,.738l-.473.473a.513.513,0,0,1-.738,0l-2.452-2.584v6.133a.509.509,0,0,1-.51.513h-.683a.513.513,0,0,1-.513-.513v-6.125l-2.452,2.584a.513.513,0,0,1-.738,0Z" transform="translate(-303.828 -392.308)"/>
    <path id="Path_130" data-name="Path 130" class="cls-39" d="M458.4,592.448a8.414,8.414,0,1,1-8.414,8.414,8.414,8.414,0,0,1,8.414-8.414m0-1.108a9.522,9.522,0,1,0,9.522,9.522,9.522,9.522,0,0,0-9.522-9.522Z" transform="translate(-295.535 -384.249)"/>
  </g>
</svg>
